<svg xmlns="http://www.w3.org/2000/svg"  xmlns:xlink="http://www.w3.org/1999/xlink" version="1.1" x="0px" y="0px" viewBox="0 0 90 110" style="enable-background:new 0 0 100 100;" xml:space="preserve"><path fill="#000" d="M76.5351562,16.6757812C69.065918,13.4423828,57.8051758,13.6386719,50,24.4169922  c-7.8041992-10.7783203-19.0649414-10.9765625-26.5332031-7.7412109  C14.8110352,20.4248047,7.5283203,30.15625,10.7695312,43.4453125c3.0239258,12.3935547,13.421875,23.0517578,21.6123047,29.8095703  c8.8232422,7.2802734,17.0629883,11.7333984,17.1450195,11.7773438C49.6748047,85.1113281,49.8374023,85.1513672,50,85.1513672  s0.3251953-0.0400391,0.4731445-0.1191406c0.0820312-0.0439453,8.3227539-4.4970703,17.1459961-11.7773438  c8.190918-6.7578125,18.5888672-17.4160156,21.6108398-29.8095703C92.4711914,30.15625,85.1899414,20.4257812,76.5351562,16.6757812  z M87.2866211,42.9707031C82.1083984,64.2109375,54.0073242,80.7451172,50,83.0078125  c-4.0068359-2.2617188-32.1025391-18.7851562-37.2871094-40.0371094c-2.965332-12.15625,3.6635742-21.0439453,11.5488281-24.4599609  c2.3378906-1.0126953,5.0859375-1.6523438,7.9765625-1.6523438c5.7958984,0,12.1621094,2.5732422,16.9243164,9.8701172  C49.347168,27.0107422,49.6621094,27.1816406,50,27.1816406s0.652832-0.1708984,0.8374023-0.453125  c7.1386719-10.9345703,17.8774414-11.2617188,24.902832-8.2167969  C83.6245117,21.9267578,90.2519531,30.8144531,87.2866211,42.9707031z"/></svg>