<svg xmlns="http://www.w3.org/2000/svg" data-name="Layer 1" viewBox="0 0 24 30" x="0px" y="0px"><path d="M17.061,1a6.7,6.7,0,0,0-4.94,2.2L12,3.323,11.884,3.2a6.821,6.821,0,0,0-9.872,0,7.765,7.765,0,0,0,0,10.414l7.841,8.441a2.907,2.907,0,0,0,4.3,0l7.841-8.441A7.608,7.608,0,0,0,24,8.4a7.564,7.564,0,0,0-2-5.2A6.678,6.678,0,0,0,17.061,1Zm3.468,11.247-7.841,8.441a.931.931,0,0,1-1.372,0l-7.84-8.441a5.734,5.734,0,0,1,0-7.693,4.726,4.726,0,0,1,6.941,0c.418.45.893,1.235,1.583,1.235.658,0,1.167-.787,1.584-1.235a4.754,4.754,0,0,1,6.946,0A5.876,5.876,0,0,1,20.529,12.247Z"/><text x="0" y="39" fill="#000000" font-size="5px" font-weight="bold" font-family="'Helvetica Neue', Helvetica, Arial-Unicode, Arial, Sans-serif">Created by Gicon studio</text><text x="0" y="44" fill="#000000" font-size="5px" font-weight="bold" font-family="'Helvetica Neue', Helvetica, Arial-Unicode, Arial, Sans-serif">from the Noun Project</text></svg>