<svg xmlns:dc="http://purl.org/dc/elements/1.1/" xmlns:cc="http://creativecommons.org/ns#" xmlns:rdf="http://www.w3.org/1999/02/22-rdf-syntax-ns#" xmlns:svg="http://www.w3.org/2000/svg" xmlns="http://www.w3.org/2000/svg" xmlns:sodipodi="http://sodipodi.sourceforge.net/DTD/sodipodi-0.dtd" xmlns:inkscape="http://www.inkscape.org/namespaces/inkscape" version="1.1" x="0px" y="0px" viewBox="0 0 100 125"><g transform="translate(0,-952.36218)"><path style="text-indent:0;text-transform:none;direction:ltr;block-progression:tb;baseline-shift:baseline;color:#000000;enable-background:accumulate;" d="m 50,966.36216 c -19.8467,0 -36,16.15339 -36,36.00004 0,19.8466 16.1533,36 36,36 19.8467,0 36,-16.1534 36,-36 0,-19.84665 -16.1533,-36.00004 -36,-36.00004 z m 0,6 c 16.6041,0 30,13.39605 30,30.00004 0,16.6039 -13.3959,30 -30,30 -16.604101,0 -30,-13.3961 -30,-30 0,-16.60399 13.395899,-30.00004 30,-30.00004 z m -11,14 0,32.00004 28,-16 -28,-16.00004 z" fill="#000" fill-opacity="1" stroke="none" marker="none" visibility="visible" display="inline" overflow="visible"/></g></svg>