<svg xmlns="http://www.w3.org/2000/svg" xmlns:xlink="http://www.w3.org/1999/xlink" viewBox="0 0 48 55" version="1.1" x="0px" y="0px"><title>Plus New</title><desc>Created with Sketch.</desc><g stroke="none" stroke-width="1" fill="none" fill-rule="evenodd"><path d="M24.5,12 C25.0128358,12 25.4355072,12.3860402 25.4932723,12.8833789 L25.5,13 L25.5,23.5 L36,23.5 C36.5522847,23.5 37,23.9477153 37,24.5 C37,25.0128358 36.6139598,25.4355072 36.1166211,25.4932723 L36,25.5 L25.5,25.5 L25.5,36 C25.5,36.5522847 25.0522847,37 24.5,37 C23.9871642,37 23.5644928,36.6139598 23.5067277,36.1166211 L23.5,36 L23.5,25.5 L13,25.5 C12.4477153,25.5 12,25.0522847 12,24.5 C12,23.9871642 12.3860402,23.5644928 12.8833789,23.5067277 L13,23.5 L23.5,23.5 L23.5,13 C23.5,12.4477153 23.9477153,12 24.5,12 Z" fill="#000" fill-rule="nonzero"/></g></svg>