<svg xmlns="http://www.w3.org/2000/svg" viewBox="0 0 32 40" x="0px" y="0px"><defs><style>.cls-1{fill:none;}</style></defs><g><path d="M23.71,22.29a1,1,0,0,1,0,1.42,1,1,0,0,1-1.42,0L16,17.41l-6.29,6.3a1,1,0,0,1-1.42,0,1,1,0,0,1,0-1.42L14.59,16,8.29,9.71A1,1,0,0,1,9.71,8.29L16,14.59l6.29-6.3a1,1,0,0,1,1.42,1.42L17.41,16Z"/><rect class="cls-1" width="32" height="32"/></g><text x="0" y="47" fill="#000000" font-size="5px" font-weight="bold" font-family="'Helvetica Neue', Helvetica, Arial-Unicode, Arial, Sans-serif">Created by Iconzilla.id</text><text x="0" y="52" fill="#414141" font-size="5px" font-weight="bold" font-family="'Helvetica Neue', Helvetica, Arial-Unicode, Arial, Sans-serif">from the Noun Project</text></svg>