<svg xmlns="http://www.w3.org/2000/svg" xmlns:xlink="http://www.w3.org/1999/xlink" version="1.1" x="0px" y="0px" viewBox="0 0 96 120" style="enable-background:new 0 0 96 96;" xml:space="preserve"><g><path d="M11,77c0,6.6,5.4,12,12,12s12-5.4,12-12c0-1.2-0.2-2.3-0.5-3.3V19.4l49-10.2v39.7c-2.2-2.1-5.2-3.3-8.5-3.3   c-6.9,0-12.5,5.6-12.5,12.5S68.1,70.5,75,70.5S87.5,64.9,87.5,58c0-0.3,0-0.6,0-0.9h0V8.5C87.5,6.6,85.9,5,84,5h-0.2L33.7,15.4   c-1.8,0.1-3.2,1.6-3.2,3.5v48.7C28.5,66,25.8,65,23,65C16.4,65,11,70.4,11,77z M75,66.5c-4.7,0-8.5-3.8-8.5-8.5s3.8-8.5,8.5-8.5   s8.5,3.8,8.5,8.5S79.7,66.5,75,66.5z M23,69c4.4,0,8,3.6,8,8s-3.6,8-8,8s-8-3.6-8-8S18.6,69,23,69z"/></g><text x="0" y="111" fill="#000000" font-size="5px" font-weight="bold" font-family="'Helvetica Neue', Helvetica, Arial-Unicode, Arial, Sans-serif">Created by Awesome</text><text x="0" y="116" fill="#000000" font-size="5px" font-weight="bold" font-family="'Helvetica Neue', Helvetica, Arial-Unicode, Arial, Sans-serif">from the Noun Project</text></svg>