<svg xmlns="http://www.w3.org/2000/svg" data-name="Layer 1" viewBox="0 0 100 125" x="0px" y="0px"><title>setting</title><path d="M50,59.17A9.17,9.17,0,1,1,59.17,50,9.18,9.18,0,0,1,50,59.17Zm0-16.34A7.17,7.17,0,1,0,57.17,50,7.18,7.18,0,0,0,50,42.83Z"/><path d="M22.5,59.17A9.17,9.17,0,1,1,31.68,50,9.18,9.18,0,0,1,22.5,59.17Zm0-16.34A7.17,7.17,0,1,0,29.68,50,7.18,7.18,0,0,0,22.5,42.83Z"/><path d="M77.5,59.17A9.17,9.17,0,1,1,86.67,50,9.18,9.18,0,0,1,77.5,59.17Zm0-16.34A7.17,7.17,0,1,0,84.67,50,7.18,7.18,0,0,0,77.5,42.83Z"/><text x="0" y="115" fill="#000000" font-size="5px" font-weight="bold" font-family="'Helvetica Neue', Helvetica, Arial-Unicode, Arial, Sans-serif">Created by Irman Firmansyah</text><text x="0" y="120" fill="#000000" font-size="5px" font-weight="bold" font-family="'Helvetica Neue', Helvetica, Arial-Unicode, Arial, Sans-serif">from the Noun Project</text></svg>