<svg xmlns="http://www.w3.org/2000/svg" viewBox="0 0 32 32" x="0px" y="0px"><g data-name="Layer 5" fill="#FBFBFF"><path  d="M2,10H6.1a6,6,0,0,1,4.24,1.76l2.83,2.83a1,1,0,0,0,1.41-1.41l-2.83-2.83A8.05,8.05,0,0,0,6.1,8H2a1,1,0,0,0,0,2Z"/><path d="M25.9,10h1.69l-1.12,1.12a1,1,0,1,0,1.41,1.41l2.83-2.83a1,1,0,0,0,0-1.42L27.88,5.46a1,1,0,0,0-1.41,1.41L27.59,8H25.9a8,8,0,0,0-5.66,2.34l-9.9,9.9A6,6,0,0,1,6.1,22H2a1,1,0,0,0,0,2H6.1a8,8,0,0,0,5.66-2.34l9.9-9.9A6,6,0,0,1,25.9,10Z"/><path d="M30.92,22.62a1,1,0,0,0-.22-.33l-2.83-2.83a1,1,0,0,0-1.41,1.41L27.59,22H25.9a6,6,0,0,1-4.24-1.76l-2.83-2.83a1,1,0,0,0-1.41,1.41l2.83,2.83A8.05,8.05,0,0,0,25.9,24h1.69l-1.12,1.12a1,1,0,1,0,1.41,1.41l2.83-2.83a1,1,0,0,0,.22-1.09Z"/></g></svg>