<svg xmlns="http://www.w3.org/2000/svg" viewBox="0 0 100 125" x="0px" y="0px"><defs><style>.cls-1{fill:none;}</style></defs><title>phone icons - cleanup</title><g data-name="bounding squares"><rect data-name="Rectangle" class="cls-1" width="100" height="100"/></g><g><path fill="#FBFBFF" d="M81.25,32.375a13.00152,13.00152,0,0,1-9.25488-3.8335L62.083,18.63037A16.97454,16.97454,0,0,0,50,13.625a2.0001,2.0001,0,0,0-2,2V65.02887A14.47938,14.47938,0,1,0,52,75c0-.37445-.0282-.74194-.05615-1.10931A1.99541,1.99541,0,0,0,52,73.4375V30.125h6.08105a8.61362,8.61362,0,0,1,6.12988,2.53906,12.58461,12.58461,0,0,0,8.958,3.71094H81.25a2,2,0,0,0,0-4ZM37.5,85.5A10.5,10.5,0,1,1,48,75,10.5118,10.5118,0,0,1,37.5,85.5ZM67.03906,29.83594a12.58461,12.58461,0,0,0-8.958-3.71094H52V17.79169a12.97729,12.97729,0,0,1,7.25488,3.66681L69.167,31.36963c.01965.01965.04163.03613.06128.05566A8.68645,8.68645,0,0,1,67.03906,29.83594Z"/></g></svg>