<svg xmlns="http://www.w3.org/2000/svg" xmlns:xlink="http://www.w3.org/1999/xlink" version="1.1" x="0px" y="0px" viewBox="0 0 25 31.25" enable-background="new 0 0 25 25" xml:space="preserve"><g><g><path d="M13.5,15.5c-0.61,0-1,0.296-1,0.5s0.39,0.5,1,0.5s1-0.296,1-0.5S14.11,15.5,13.5,15.5z"/><path d="M8.5,16.5c-0.61,0-1,0.296-1,0.5s0.39,0.5,1,0.5s1-0.296,1-0.5S9.11,16.5,8.5,16.5z"/><path fill="#FBFBFF" d="M20,4.5H3C2.724,4.5,2.5,4.724,2.5,5v17c0,0.276,0.224,0.5,0.5,0.5h17c0.276,0,0.5-0.224,0.5-0.5V5    C20.5,4.724,20.276,4.5,20,4.5z M15.5,16c0,0.841-0.878,1.5-2,1.5s-2-0.659-2-1.5s0.878-1.5,2-1.5c0.369,0,0.707,0.077,1,0.202    V10.61l-4,0.8V17c0,0.841-0.878,1.5-2,1.5s-2-0.659-2-1.5s0.878-1.5,2-1.5c0.369,0,0.707,0.077,1,0.202V11    c0-0.238,0.168-0.443,0.402-0.49l5-1c0.147-0.03,0.3,0.009,0.415,0.104C15.433,9.708,15.5,9.851,15.5,10V16z"/><path fill="#FBFBFF" d="M22,2.5H5C4.724,2.5,4.5,2.724,4.5,3S4.724,3.5,5,3.5h16.5V19c0,0.276,0.224,0.5,0.5,0.5s0.5-0.224,0.5-0.5V3    C22.5,2.724,22.276,2.5,22,2.5z"/></g></g></svg>