<svg width="10" height="10" viewBox="0 -8 38 65" fill="none" xmlns="http://www.w3.org/2000/svg">
<path d="M16.8455 9.59863H12.4915V28.4095H16.8455V9.59863Z" fill="white"/>
<path d="M25.5236 9.59863H21.1696V28.4095H25.5236V9.59863Z" fill="white"/>
<path fill-rule="evenodd" clip-rule="evenodd" d="M19 0C29.4533 0 38 8.48097 38 19C38 29.4533 29.4533 38 19 38C8.48097 38 0 29.4533 0 19C0 8.48097 8.48097 0 19 0ZM19 1.38062C28.7301 1.38062 36.5536 9.2699 36.5536 19C36.5536 28.7301 28.7301 36.5536 19 36.5536C9.2699 36.5536 1.38062 28.7301 1.38062 19C1.38062 9.2699 9.2699 1.38062 19 1.38062Z" fill="white"/>
</svg>
