<svg width="18" height="19" viewBox="0 0 18 19" fill="none" xmlns="http://www.w3.org/2000/svg">
<path d="M5.04031 9.25833C5.05029 9.42243 5.11365 9.5784 5.22031 9.7014L11.7003 17.0666C11.7637 17.1391 11.8405 17.1981 11.9263 17.2402C12.0121 17.2823 12.1051 17.3066 12.2001 17.3119C12.295 17.3171 12.3901 17.3031 12.4798 17.2707C12.5695 17.2383 12.652 17.1881 12.7227 17.123C12.7934 17.0579 12.8508 16.9791 12.8917 16.8913C12.9326 16.8034 12.9561 16.7082 12.9609 16.611C12.9657 16.5138 12.9518 16.4166 12.9198 16.325C12.8879 16.2333 12.8385 16.149 12.7747 16.0769L6.72781 9.20654L12.7747 2.33615C12.8385 2.26405 12.8879 2.17976 12.9198 2.08812C12.9518 1.99647 12.9657 1.89928 12.9609 1.8021C12.9561 1.70493 12.9326 1.60968 12.8917 1.52182C12.8508 1.43397 12.7934 1.35522 12.7227 1.29011C12.652 1.225 12.5695 1.1748 12.4798 1.14238C12.3901 1.10996 12.2951 1.09597 12.2001 1.10121C12.1051 1.10644 12.0121 1.1308 11.9263 1.17288C11.8405 1.21496 11.7637 1.27395 11.7003 1.34645L5.22031 8.71169C5.1559 8.78573 5.10674 8.87231 5.07582 8.96624C5.04489 9.06017 5.03281 9.15951 5.04031 9.25833Z" fill="#010101"/>
</svg>
