<svg width="18" height="19" viewBox="0 0 18 19" fill="none" xmlns="http://www.w3.org/2000/svg">
<path d="M12.9597 9.15475C12.9497 8.99065 12.8863 8.83469 12.7797 8.71169L6.2997 1.34645C6.23627 1.27395 6.15947 1.21497 6.0737 1.17289C5.98794 1.1308 5.89492 1.10645 5.79994 1.10121C5.70496 1.09598 5.6099 1.10997 5.52021 1.14239C5.43053 1.1748 5.34798 1.22501 5.2773 1.29012C5.20661 1.35523 5.14919 1.43397 5.10831 1.52183C5.06744 1.60968 5.04391 1.70493 5.03908 1.80211C5.03425 1.89928 5.04822 1.99648 5.08018 2.08812C5.11214 2.17976 5.16147 2.26405 5.22534 2.33616L11.2722 9.20655L5.22534 16.0769C5.16147 16.149 5.11214 16.2333 5.08018 16.325C5.04822 16.4166 5.03425 16.5138 5.03908 16.611C5.04391 16.7082 5.06743 16.8034 5.1083 16.8913C5.14918 16.9791 5.20661 17.0579 5.2773 17.123C5.34798 17.1881 5.43053 17.2383 5.52021 17.2707C5.6099 17.3031 5.70495 17.3171 5.79993 17.3119C5.89491 17.3066 5.98794 17.2823 6.0737 17.2402C6.15947 17.1981 6.23627 17.1391 6.2997 17.0666L12.7797 9.7014C12.8441 9.62736 12.8933 9.54078 12.9242 9.44685C12.9551 9.35292 12.9672 9.25357 12.9597 9.15475Z" fill="#010101"/>
</svg>
